<svg height='100px' width='100px'  fill="#FFFFFF" xmlns="http://www.w3.org/2000/svg" xmlns:xlink="http://www.w3.org/1999/xlink" version="1.1" x="0px" y="0px" viewBox="0 0 89.625 90.139" enable-background="new 0 0 89.625 90.139" xml:space="preserve"><g><path d="M60.027,76.76c0-0.341-0.17-0.642-0.43-0.821l-6.873-6.723c0.001-0.013,0.008-0.022,0.008-0.036   c0-0.097-0.013-0.188-0.038-0.274l-1.91-24.813h7.149c0.008,0,0.017,0,0.021,0c0.553,0,1-0.446,1-1   c0-0.133-0.025-0.259-0.072-0.374l-0.965-5.194c-0.088-0.475-0.502-0.817-0.982-0.817h-3.049c0-0.091,0-0.216,0-0.226   c0.473-3.749-0.622-7.738-2.973-10.648c-0.985-1.22-2.108-2.117-3.293-2.677c0.658-0.694,1.069-1.628,1.069-2.659   c0-2.137-1.737-3.875-3.875-3.875c-2.137,0-3.875,1.738-3.875,3.875c0,1.04,0.417,1.981,1.086,2.679   c-1.056,0.519-2.062,1.313-2.954,2.379c-2.412,2.876-3.65,7.057-3.292,10.921c-0.004,0.001,0.012,0.156,0,0.231h-3.234   c-0.481,0-0.896,0.344-0.983,0.817l-1,5.387c-0.054,0.292,0.024,0.594,0.215,0.822c0.189,0.229,0.472,0.359,0.769,0.359h7.15   l-1.927,25.012c-0.006,0.073,0.018,0.145,0.028,0.218l-6.877,6.726c-0.252,0.246-0.342,0.604-0.264,0.939l0.997,6.381   c0.076,0.486,0.495,0.845,0.987,0.845h26.346c0.492,0,0.911-0.357,0.987-0.845l0.97-6.209   C59.997,77.036,60.027,76.902,60.027,76.76z M44.814,18.62c1.034,0,1.875,0.841,1.875,1.875s-0.841,1.875-1.875,1.875   s-1.875-0.841-1.875-1.875S43.78,18.62,44.814,18.62z M40.604,26.837c1.27-1.514,2.766-2.348,4.211-2.348   c1.426,0,2.881,0.763,4.146,2.148l-4.881,5.245c-0.376,0.405-0.354,1.037,0.051,1.414c0.193,0.18,0.438,0.269,0.682,0.269   c0.268,0,0.535-0.107,0.732-0.318l4.629-4.976c1.451,2.387,2.093,5.4,1.697,8.169H37.786   C37.438,33.085,38.523,29.316,40.604,26.837z M33.376,38.705h22.727l0.628,3.387H32.748L33.376,38.705z M38.864,67.937   l1.827-23.725h8.097l1.826,23.725H38.864z M38.778,70.18h12.07l5.706,5.58H33.072L38.778,70.18z M57.131,82.213H32.496   l-0.687-4.389h26.008L57.131,82.213z"></path></g></svg>