<svg height='100px' width='100px'  fill="#000000" xmlns="http://www.w3.org/2000/svg" xmlns:xlink="http://www.w3.org/1999/xlink" version="1.1" x="0px" y="0px" viewBox="0 0 89.625 90.139" enable-background="new 0 0 89.625 90.139" xml:space="preserve"><g><path d="M60.026,76.76c0-0.341-0.17-0.642-0.43-0.821l-6.873-6.723c0.001-0.013,0.008-0.022,0.008-0.036   c0-0.097-0.014-0.188-0.038-0.274l-1.911-24.813h7.15c0.008,0,0.015,0,0.02,0c0.553,0,1-0.446,1-1c0-0.133-0.024-0.259-0.072-0.374   l-0.963-5.194c-0.088-0.475-0.502-0.817-0.983-0.817h-4.461l6.339-11.613c0.169-0.311,0.162-0.687-0.018-0.989   c-0.182-0.304-0.508-0.489-0.86-0.489h-9.517c-0.013-0.066-0.014-0.138-0.039-0.199l-0.963-5.194   c-0.004-0.021-0.017-0.034-0.021-0.054c0.053-0.05,0.104-0.1,0.15-0.15c0.021,0.005,0.035,0.017,0.056,0.021l5.387,1   c0.062,0.011,0.122,0.018,0.183,0.018c0.231,0,0.459-0.08,0.641-0.231c0.229-0.189,0.359-0.472,0.359-0.769v-5.388   c0-0.297-0.131-0.579-0.359-0.769c-0.229-0.19-0.528-0.268-0.822-0.215l-5.387,1c-0.02,0.004-0.034,0.016-0.053,0.02   c-0.051-0.052-0.101-0.102-0.151-0.149c0.005-0.021,0.017-0.035,0.021-0.056l1-5.387c0.055-0.292-0.023-0.594-0.215-0.822   C48.013,6.061,47.73,5.93,47.433,5.93h-5.387c-0.297,0-0.579,0.132-0.769,0.359c-0.19,0.229-0.269,0.53-0.215,0.822l1,5.387   c0.004,0.021,0.016,0.035,0.021,0.056c-0.052,0.049-0.102,0.099-0.15,0.149c-0.02-0.006-0.035-0.018-0.056-0.021l-5.387-1   c-0.293-0.052-0.593,0.022-0.822,0.215c-0.229,0.188-0.36,0.472-0.36,0.769v5.388c0,0.297,0.132,0.578,0.36,0.769   c0.182,0.151,0.408,0.231,0.64,0.231c0.061,0,0.122-0.007,0.183-0.018l5.387-1c0.02-0.004,0.035-0.016,0.055-0.021   c0.049,0.052,0.099,0.102,0.149,0.149c-0.004,0.021-0.017,0.035-0.021,0.057l-1,5.387c-0.001,0.003,0.001,0.005,0,0.008h-9.517   c-0.353,0-0.68,0.188-0.86,0.489c-0.18,0.304-0.187,0.68-0.018,0.99l6.339,11.612h-4.461c-0.481,0-0.896,0.344-0.983,0.817   l-1,5.387c-0.054,0.292,0.024,0.594,0.215,0.822c0.189,0.229,0.472,0.359,0.769,0.359h7.15l-1.927,25.012   c-0.006,0.074,0.018,0.145,0.028,0.218l-6.877,6.726c-0.252,0.246-0.342,0.604-0.264,0.939l0.997,6.381   c0.076,0.486,0.495,0.845,0.987,0.845h26.346c0.492,0,0.911-0.357,0.987-0.845l0.97-6.209   C59.995,77.036,60.026,76.902,60.026,76.76z M43.247,22.787l0.628-3.387H45.6l0.628,3.387H43.247z M46.614,15.356   c0,1.034-0.841,1.875-1.875,1.875c-1.034,0-1.875-0.841-1.875-1.875s0.841-1.875,1.875-1.875   C45.773,13.481,46.614,14.322,46.614,15.356z M48.782,14.495l3.387-0.628v2.98l-3.387-0.629V14.495z M46.229,7.926l-0.628,3.388   h-1.725l-0.628-3.388H46.229z M40.694,16.218l-3.387,0.629v-2.98l3.387,0.628V16.218z M56.247,25.612l-5.908,10.824h-11.2   L33.23,25.612H56.247z M33.375,38.705h22.727l0.628,3.387H32.747L33.375,38.705z M38.863,67.937l1.827-23.725h8.096l1.827,23.725   H38.863z M38.777,70.18h12.07l5.706,5.58H33.071L38.777,70.18z M57.129,82.213H32.495l-0.687-4.389h26.008L57.129,82.213z"></path></g></svg>