<svg height='100px' width='100px'  fill="#000000" xmlns="http://www.w3.org/2000/svg" xmlns:xlink="http://www.w3.org/1999/xlink" version="1.1" x="0px" y="0px" viewBox="0 0 89.625 90.139" enable-background="new 0 0 89.625 90.139" xml:space="preserve"><g><g><path d="M48.312,39.685c-0.501-0.237-1.095-0.021-1.331,0.478l-1.438,3.047c-0.235,0.5-0.021,1.097,0.478,1.331    c0.138,0.065,0.283,0.097,0.426,0.097c0.375,0,0.734-0.213,0.905-0.573l1.438-3.047C49.025,40.516,48.812,39.92,48.312,39.685z"></path><path d="M62.581,48.455l-9.281-12.757c-0.188-0.259-0.487-0.412-0.809-0.412h-7.507l-3.432-5.942c-0.179-0.31-0.509-0.5-0.866-0.5    s-0.688,0.191-0.866,0.502l-3.612,6.272c-0.045,0.077-0.242,0.507-0.261,0.661l-3.812,31.908    c-0.044,0.047-0.088,0.094-0.123,0.147l-5,7.825c-0.134,0.209-0.176,0.456-0.138,0.693c0.001,0.042-0.015,0.083-0.008,0.125    l1,6.387c0.076,0.487,0.496,0.846,0.988,0.846h26.389c0.492,0,0.912-0.357,0.988-0.846l1-6.387    c0.005-0.032-0.008-0.063-0.006-0.097c0.012-0.062,0.037-0.118,0.037-0.185c0-0.265-0.104-0.505-0.27-0.684l-4.908-7.681    c-0.033-0.054-0.076-0.099-0.119-0.144l-1.758-15.794l9.498,1.665c0.06,0.01,0.116,0.015,0.174,0.015    c0.383,0,0.738-0.22,0.904-0.575l1.894-4.035C62.833,49.138,62.795,48.749,62.581,48.455z M40.688,31.846l1.886,3.266    l-3.769,0.004L40.688,31.846z M37.659,38.809l0.144,0.171l4.447,11.53c0.126,0.328,0.414,0.565,0.76,0.627l5.146,0.901    l1.749,15.711H34.202L37.659,38.809z M54.388,82.212H29.71l-0.687-4.387h26.052L54.388,82.212z M50.695,69.874l3.724,5.825H29.68    l3.723-5.825H50.695z M59.299,51.961l-15.387-2.696l-4.62-11.979h12.69l8.634,11.867L59.299,51.961z"></path></g></g></svg>