<svg height='100px' width='100px'  fill="#000000" xmlns="http://www.w3.org/2000/svg" xmlns:xlink="http://www.w3.org/1999/xlink" version="1.1" x="0px" y="0px" viewBox="0 0 89.625 90.139" enable-background="new 0 0 89.625 90.139" xml:space="preserve"><g><path d="M59.027,76.699c0-0.318-0.147-0.602-0.38-0.785l-6.895-7.707c-0.021-0.022-0.053-0.033-0.075-0.055l-1.671-7.49h5.875   c0.008,0,0.016,0,0.021,0c0.554,0,1-0.447,1-1c0-0.133-0.024-0.259-0.071-0.374l-0.965-5.195c-0.088-0.474-0.502-0.816-0.982-0.816   h-5.364c2.59-1.618,4.321-4.487,4.321-7.76c0-5.047-4.104-9.151-9.15-9.151c-5.047,0-9.152,4.104-9.152,9.151   c0,3.271,1.732,6.142,4.322,7.76h-5.365c-0.481,0-0.896,0.344-0.983,0.816l-1,5.388c-0.054,0.292,0.024,0.594,0.215,0.821   c0.189,0.229,0.472,0.36,0.769,0.36h6.126l-1.671,7.49c-0.023,0.021-0.055,0.031-0.075,0.055l-7,7.825   c-0.206,0.229-0.286,0.537-0.236,0.833c0.002,0.039-0.013,0.076-0.007,0.114l1,6.387c0.076,0.487,0.496,0.846,0.988,0.846H57.01   c0.492,0,0.912-0.357,0.988-0.846l1-6.387c0.004-0.032-0.009-0.063-0.006-0.097C59.002,76.821,59.027,76.765,59.027,76.699z    M37.537,45.516c0-3.943,3.209-7.151,7.152-7.151c3.942,0,7.149,3.208,7.149,7.151c0,3.942-3.207,7.151-7.149,7.151   C40.746,52.668,37.537,49.459,37.537,45.516z M35.325,55.275h18.727l0.628,3.387H34.697L35.325,55.275z M40.088,67.75l1.554-6.966   h6.344l1.554,6.966H40.088z M39.066,69.874H50.56l5.211,5.825H33.855L39.066,69.874z M56.152,82.212H33.475l-0.687-4.387h24.05   L56.152,82.212z"></path></g></svg>