<svg height='100px' width='100px'  fill="#FFFFFF" xmlns="http://www.w3.org/2000/svg" xmlns:xlink="http://www.w3.org/1999/xlink" version="1.1" x="0px" y="0px" viewBox="0 0 89.625 90.139" enable-background="new 0 0 89.625 90.139" xml:space="preserve"><g><path d="M60.027,76.76c0-0.341-0.17-0.642-0.43-0.821l-6.873-6.723c0.001-0.013,0.008-0.022,0.008-0.036   c0-0.097-0.013-0.188-0.038-0.274l-1.91-24.813h7.149c0.007,0,0.015,0,0.021,0c0.553,0,1-0.446,1-1   c0-0.133-0.025-0.259-0.072-0.374l-0.965-5.194c-0.088-0.475-0.502-0.817-0.982-0.817h-4.321l7.048-12.973   c-0.332-1.812-1.951-3.195-3.904-3.195c-1.344,0-2.528,0.657-3.25,1.654c-0.719-0.997-1.903-1.654-3.245-1.654   c-0.196,0-0.388,0.023-0.575,0.051c-0.02-2.122-1.746-3.843-3.872-3.843s-3.854,1.721-3.872,3.843   c-0.188-0.026-0.378-0.051-0.573-0.051c-1.344,0-2.529,0.657-3.25,1.654c-0.719-0.997-1.904-1.654-3.248-1.654   c-1.953,0-3.572,1.383-3.904,3.195l7.05,12.973h-4.47c-0.481,0-0.896,0.344-0.983,0.817l-1,5.387   c-0.054,0.292,0.024,0.594,0.215,0.822c0.189,0.229,0.472,0.359,0.769,0.359h7.15l-1.927,25.012   c-0.006,0.073,0.018,0.145,0.028,0.218l-6.877,6.726c-0.252,0.246-0.342,0.604-0.264,0.939l0.997,6.381   c0.076,0.486,0.495,0.845,0.987,0.845h26.346c0.492,0,0.911-0.357,0.987-0.845l0.97-6.209   C59.997,77.036,60.027,76.902,60.027,76.76z M55.756,22.537c0.813,0,1.508,0.497,1.787,1.195h-3.576   C54.249,23.034,54.941,22.537,55.756,22.537z M51.047,23.732h-3.576c0.279-0.698,0.973-1.195,1.789-1.195   C50.072,22.537,50.766,23.034,51.047,23.732z M44.812,18.745c1.035,0,1.875,0.841,1.875,1.875s-0.84,1.875-1.875,1.875   c-1.033,0-1.875-0.841-1.875-1.875S43.779,18.745,44.812,18.745z M40.367,22.537c0.814,0,1.508,0.497,1.787,1.195h-3.576   C38.859,23.034,39.553,22.537,40.367,22.537z M33.869,22.537c0.814,0,1.508,0.497,1.789,1.195h-3.576   C32.361,23.034,33.055,22.537,33.869,22.537z M56.322,25.732l-5.907,10.824H39.213l-5.908-10.824H56.322z M33.376,38.705h22.727   l0.628,3.387H32.748L33.376,38.705z M38.864,67.937l1.827-23.725h8.097l1.826,23.725H38.864z M38.778,70.18h12.07l5.706,5.58   H33.072L38.778,70.18z M57.131,82.213H32.496l-0.687-4.389h26.008L57.131,82.213z"></path></g></svg>