<svg height='100px' width='100px'  fill="#000000" xmlns="http://www.w3.org/2000/svg" xmlns:xlink="http://www.w3.org/1999/xlink" version="1.1" x="0px" y="0px" viewBox="0 0 89.625 90.139" enable-background="new 0 0 89.625 90.139" xml:space="preserve"><g><path d="M60.026,76.699c0-0.265-0.104-0.505-0.27-0.684l-4.907-7.681c-0.035-0.055-0.079-0.102-0.123-0.146l-1.83-15.526h2.11   c0.502,0,0.927-0.373,0.99-0.871l2-15.388c0.037-0.285-0.05-0.572-0.24-0.789c-0.188-0.216-0.463-0.34-0.75-0.34H32.618   c-0.288,0-0.562,0.124-0.751,0.34c-0.19,0.217-0.277,0.504-0.24,0.789l2,15.388c0.064,0.498,0.488,0.871,0.991,0.871h2.11   l-1.83,15.526c-0.044,0.046-0.088,0.093-0.123,0.146l-5,7.825c-0.134,0.209-0.176,0.456-0.138,0.693   c0.001,0.042-0.015,0.083-0.008,0.125l1,6.387c0.076,0.487,0.496,0.846,0.988,0.846h26.389c0.492,0,0.912-0.357,0.988-0.846   l1-6.387c0.004-0.032-0.009-0.063-0.007-0.097C60,76.821,60.026,76.765,60.026,76.699z M37.399,64.054h6.414v3.695h-6.85   L37.399,64.054z M45.813,64.054h6.412l0.436,3.695h-6.848V64.054z M43.813,56.358h-5.507l0.421-3.574h5.086V56.358z M45.813,52.784   h5.084l0.421,3.574h-5.505V52.784z M38.07,58.358h13.484l0.437,3.694H37.635L38.07,58.358z M33.757,37.274h6.35v3.906   c0,0.553,0.447,1,1,1c0.553,0,1-0.447,1-1v-3.906h5.414v3.906c0,0.553,0.446,1,1,1s1-0.447,1-1v-3.906h6.349l-1.74,13.388H35.497   L33.757,37.274z M36.166,69.874h17.293l3.723,5.825H32.443L36.166,69.874z M57.151,82.212H32.474l-0.687-4.387h26.051   L57.151,82.212z"></path></g></svg>